<svg width="0" height="0" class="hidden">
  <symbol stroke-miterlimit="10" version="1.1" xml:space="preserve" xmlns="http://www.w3.org/2000/svg" xmlnsVectornator="http://vectornator.io" xmlns:xlink="http://www.w3.org/1999/xlink" viewBox="0 0 256 256" id="add">
    <defs></defs>
    <g id="图层-1" vectornatorLayerName="图层 1">
      <path d="M104 136L72 136C53.144 136 34.856 144 16 144C7.16 144 0 136.84 0 128C0 119.168 7.16 112 16 112C34.856 112 53.144 120 72 120L104 120C111.544 120 120 111.544 120 104L120 72C120 53.144 112 34.856 112 16C112 7.16 119.168 0 128 0C136.84 0 144 7.16 144 16C144 34.856 136 53.144 136 72L136 104C136 111.544 144.456 120 152 120L184 120C202.856 120 221.144 112 240 112C248.84 112 256 119.168 256 128C256 136.84 248.84 144 240 144C221.144 144 202.856 136 184 136L152 136C144.456 136 136 144.456 136 152L136 168C136 189.992 152 210.008 152 232C152 245.256 141.256 256 128 256C114.744 256 104 245.256 104 232C104 210.008 120 189.992 120 168L120 152C120 144.456 111.544 136 104 136" fill="#000000" fill-rule="nonzero" opacity="1" stroke="none"></path>
    </g>
  </symbol>
  <symbol stroke-miterlimit="10" version="1.1" xml:space="preserve" xmlns="http://www.w3.org/2000/svg" xmlnsVectornator="http://vectornator.io" xmlns:xlink="http://www.w3.org/1999/xlink" viewBox="0 0 269.047 256" id="chart">
    <defs></defs>
    <clipPath id="ArtboardFrame">
      <rect height="256" width="269.047" x="0" y="0"></rect>
    </clipPath>
    <g clip-path="url(#ArtboardFrame)" id="图层-1" vectornatorLayerName="图层 1">
      <path d="M147.134 107.932C147.061 109.426 146.178 110.534 144.665 110.683C141.99 110.923 139.288 110.993 136.596 111.045C136.148 111.056 135.362 110.65 135.291 110.318C134.91 108.524 134.565 106.697 134.489 104.865C134.448 103.69 135.486 103.12 136.526 102.677C137.261 102.355 137.966 101.909 138.563 101.383C139.766 100.318 139.56 97.9429 138.164 97.1728C137.239 96.6702 136.142 96.5108 135.175 96.0785C134.111 95.6138 133.962 94.2222 134.897 93.4711C135.94 92.6335 137.14 91.9688 138.126 91.0771C139.371 89.9423 139.112 87.724 137.661 86.8918C136.737 86.3649 135.672 86.0893 134.716 85.5975C134.046 85.2489 133.238 84.8599 132.9 84.2573C132.546 83.625 132.435 82.6388 132.662 81.9525C132.865 81.3392 133.624 80.5529 134.205 80.4961C136.078 80.3097 137.983 80.4259 139.871 80.4259L139.871 80.5529C142.025 80.5529 144.211 80.3583 146.326 80.6529C147.067 80.7636 148.21 82.0984 148.191 82.8496C147.958 91.2149 147.545 99.5722 147.134 107.932M157.334 103.468C157.177 95.5894 157.029 87.7105 156.829 79.8315C156.796 78.4859 156.713 77.1079 156.386 75.8028C155.467 72.0308 153.251 70.3421 149.282 70.6015C143.33 70.9852 137.383 71.4931 131.444 72.0822C127.102 72.5118 125.218 74.4059 124.543 78.7155C123.438 85.7083 122.762 92.7172 123.381 99.8099C123.381 104.155 123.122 108.518 123.465 112.839C123.746 116.276 125.391 119.024 129.361 119.594C132.025 119.98 134.643 120.804 137.307 121.066C142.157 121.537 147.029 121.78 151.895 122.045C156.143 122.277 159.425 118.845 158.358 114.765C157.367 110.993 157.421 107.257 157.334 103.468M100.255 59.1748C100.203 61.6066 100.244 64.0465 100.244 66.3729C99.6333 77.0268 98.9686 87.5564 98.4498 98.0888C98.2228 102.688 98.339 107.3 98.1985 111.901C98.1607 113.055 97.3906 113.885 96.1342 113.963C94.7886 114.055 93.4322 114.106 92.0758 114.079C88.1174 114.001 86.2233 111.488 87.3095 107.684C87.523 106.93 88.012 106.222 88.5038 105.589C89.8764 103.817 89.8277 102.158 88.3227 100.502C87.7905 99.9045 87.0663 99.2506 86.9663 98.5427C86.8258 97.5619 86.861 96.2839 87.396 95.53C88.3092 94.2385 89.7386 93.3198 90.7978 92.112C92.1434 90.5854 91.6219 88.2995 89.7332 87.3295C89.0307 86.9701 88.2011 86.8026 87.4095 86.6648C86.1612 86.4432 85.3587 85.6245 85.5154 84.4951C85.6478 83.5602 86.2665 82.4956 86.9988 81.8823C88.6551 80.5124 90.6464 79.518 92.2352 78.0779C92.8783 77.4969 93.2323 76.0244 92.9729 75.1976C92.7 74.341 91.6003 73.3872 90.7032 73.1873C89.4792 72.9225 88.0904 73.2494 86.7988 73.4656C85.5532 73.6763 84.5183 73.3089 84.286 72.1416C84.0968 71.1716 84.3022 69.9935 84.7129 69.0803C85.0047 68.4372 85.8801 67.9779 86.5935 67.6077C88.0174 66.8592 89.5521 66.2999 90.9626 65.5244C92.2298 64.8165 92.8621 63.1332 92.4406 62.0983C91.6786 60.2421 89.6845 59.1424 87.885 59.7395C86.8664 60.0718 85.9477 60.696 84.9669 61.1553C84.7777 61.2445 84.467 61.2607 84.2806 61.158C84.0536 61.0419 83.8266 60.8068 83.7483 60.569C81.4354 53.9086 82.0325 52.8846 88.8766 51.6714C89.6791 51.5282 90.4708 51.2526 91.2733 51.212C101.754 50.6365 100.447 50.3096 100.255 59.1748M109.655 47.1861C109.49 43.7383 107.491 41.6389 104.04 41.4525C97.7689 41.112 91.5489 41.7443 85.5316 43.4546C75.8693 46.2025 73.9482 48.9045 73.678 59.1234C73.6645 59.6611 73.6645 60.2042 73.6537 60.7419C73.3213 77.0322 74.5967 93.2603 75.8017 109.472C76.1017 113.514 76.8285 117.543 78.8712 121.172C79.8682 122.942 81.2679 123.99 83.2997 124.371C90.2763 125.69 97.3204 125.695 104.367 125.417C105.686 125.368 107.026 124.898 108.293 124.46C110.568 123.658 111.754 121.939 111.76 119.499C111.781 111.104 111.765 102.701 111.765 93.6899C111.084 78.5912 110.387 62.89 109.655 47.1861M191.76 112.623C191.325 112.561 190.909 112.366 190.444 112.212C190.755 111.985 191.063 111.599 191.336 111.615C191.668 111.642 191.982 111.996 192.303 112.212C192.122 112.366 191.917 112.644 191.76 112.623M186.972 103.204C186.529 101.88 186.94 100.634 188.191 99.7991C188.623 99.5154 189.064 99.2182 189.523 98.9669C190.528 98.4265 191.458 99.129 191.458 99.2939C191.458 100.966 191.679 101.68 191.422 101.969C190.588 102.888 189.636 103.758 188.583 104.39C188.339 104.533 187.151 103.747 186.972 103.204M190.382 87.4943C190.09 87.7159 189.828 88.0536 189.501 88.1428C189.145 88.2427 188.761 88.24 188.377 88.2427C188.331 88.3184 188.288 88.3995 188.239 88.4697C188.053 88.5643 187.864 88.6426 187.696 88.7588C187.596 88.8345 187.521 88.9561 187.442 89.056L188.013 88.2481C188.131 88.2427 188.256 88.2427 188.377 88.2427C188.583 87.8915 188.772 87.5078 189.072 87.3673C189.409 87.1971 189.939 87.4294 190.382 87.4943M185.311 65.2651C185.057 63.0954 188.207 60.6203 190.234 61.3337C190.62 61.4715 190.809 62.1821 191.09 62.6306C191.385 65.2651 189.28 67.4077 186.651 66.943C186.108 66.8484 185.383 65.8919 185.311 65.2651M204.557 48.3668C201.036 43.2169 197.626 38.0507 195.443 32.1441C194.568 29.7583 192.371 29.1044 190.112 30.2176C189.147 30.6986 188.18 31.2065 187.283 31.8064C180.05 36.6889 173.986 42.8683 168.202 49.3287C166.734 50.958 165.754 52.8629 165.562 55.1434C165.197 59.4612 166.697 61.4661 171.152 62.4361C171.684 62.5469 172.228 62.5685 172.76 62.6414C174.354 62.8684 175.135 63.9141 175.146 65.4137C175.189 71.639 175.162 77.8725 175.162 84.106L175.073 84.106C175.073 86.0055 174.992 87.905 175.094 89.7937C175.537 98.1752 176.048 106.543 176.524 114.914C176.64 116.93 177.356 118.735 179.12 119.71C183.838 122.317 188.529 124.698 194.308 124.414C202.652 124.001 204.862 122.045 204.414 113.509C204.165 108.924 203.195 104.371 203.079 99.7883C202.784 87.8672 201.817 76.0136 200.071 64.2248C199.88 62.917 200.798 62.2415 201.966 62.1145C203.025 61.9984 204.141 62.2415 205.194 62.1037C208.294 61.6822 209.999 58.9856 208.764 56.208C207.548 53.506 206.224 50.7986 204.557 48.3668M241.655 99.2398L241.655 131.839C241.655 132.382 241.677 132.925 241.65 133.463C240.901 146.425 242.314 144.906 229.418 147.608C222.595 149.032 216.029 148.8 209.285 147.765C206.351 147.311 203.322 147.427 200.334 147.4C191.911 147.338 183.489 147.2 175.073 147.332C162.017 147.543 149.034 146.341 136.045 145.411C132.468 145.152 129.034 145.787 125.518 145.676C108.398 145.152 91.3328 146.662 74.2319 147.054C65.2775 147.26 56.3285 147.654 47.3714 147.951C46.0583 147.997 44.891 146.846 44.8181 145.349C44.7316 143.452 44.7289 141.553 44.7181 139.648C44.5641 108.681 44.4425 77.7131 44.2155 46.7456C44.1777 41.3282 43.6508 35.9188 43.3914 30.504C43.2698 28.0587 43.1861 25.6107 43.1807 23.1681C43.1753 20.5499 43.5346 20.1176 46.5284 19.6258C49.4682 19.153 52.4269 18.745 55.399 18.5774C59.4628 18.3397 63.5428 18.3127 67.6147 18.2748C83.3673 18.1235 99.1361 18.391 114.87 17.7371C124.362 17.3426 133.757 17.2724 143.208 18.1397C148.874 18.6504 154.613 18.3127 160.317 18.2964C162.217 18.291 164.205 18.4504 165.994 17.9479C171.868 16.3132 177.837 16.7023 183.795 16.6563C199.553 16.5185 215.305 16.3969 231.055 16.2699C232.414 16.2645 233.776 16.2024 235.127 16.2699C236.705 16.3537 237.486 17.4318 237.878 18.8206C238.094 19.5961 238.253 20.4067 238.315 21.2092C239.402 34.4516 240.49 47.6913 241.528 60.9365C241.698 63.1008 241.655 65.2867 241.655 67.4591C241.66 78.0563 241.655 88.648 241.655 99.2398M261.463 151.475C260.331 149.529 258.723 148.108 256.613 147.338C255.857 147.062 255.003 147.089 254.211 146.911C250.68 146.087 250.542 145.849 251.061 141.896C251.228 140.55 251.482 139.205 251.536 137.854C252.014 125.095 252.66 112.339 252.849 99.5722C253.003 88.4535 252.928 77.3294 252.241 66.1837C251.515 54.5355 251.604 42.8467 250.126 31.2362C249.65 27.4697 249.307 23.6896 248.853 19.923C248.586 17.6966 248.713 17.1103 251.293 16.7509C256.111 16.097 258.305 13.0519 259.421 8.80166C259.893 6.99403 258.829 4.31636 257.302 3.94889C251.798 2.61681 246.475 0.295812 240.669 0.544392C234.743 0.803784 228.896 0.695702 222.944 0.168816C216.256-0.412111 209.412 0.655174 202.652 1.12532C199.674 1.33067 196.718 2.22773 193.77 2.14937C187.469 1.95753 181.363 3.39769 175.162 3.9543C170.844 4.33258 166.529 4.93512 162.206 4.98646C149.704 5.13507 137.202 5.06752 124.705 5.04049C122.53 5.04049 120.357 4.90809 118.193 4.72977C113.865 4.3704 109.55 3.86243 105.221 3.56251C100.36 3.22476 95.4965 3.48416 90.6519 2.31689C88.0904 1.70084 85.1614 1.84674 82.5567 2.38984C77.9849 3.34095 73.3835 3.27339 68.782 3.56791C56.8662 4.32717 44.9397 4.85135 33.0698 6.2645C30.9542 6.52389 28.7575 6.09156 26.5959 5.99429C22.7996 5.81057 19.006 5.589 15.2124 5.48902C12.6455 5.42148 10.4299 6.4077 8.62497 8.22883C5.73384 11.1578 6.43636 16.2375 10.1354 17.8587C12.0862 18.7098 14.2829 19.1259 16.4148 19.3934C18.5575 19.6636 20.7515 19.5096 22.9266 19.5096C26.558 19.5258 26.885 20.9039 26.858 23.2735C26.658 41.4741 26.6526 59.6719 28.0036 77.8509C28.4197 83.5413 28.3035 89.2668 28.7467 94.9599C29.5491 105.23 30.6678 115.479 31.4919 125.754C32.0404 132.515 32.289 139.294 32.6699 146.071C32.7537 147.497 31.8134 148.505 30.1625 148.621C28.5359 148.738 26.9012 148.8 25.2692 148.794C22.6483 148.778 20.5948 150.167 18.6466 151.591C16.5742 153.107 15.7501 157.249 16.8741 159.862C17.9549 162.372 19.9706 163.517 22.7212 163.371C24.3532 163.28 25.9879 163.266 27.6145 163.201C42.5484 162.653 57.4769 162.093 72.4135 161.55C75.1289 161.45 77.8525 161.464 80.5653 161.323C89.2414 160.88 97.9175 160.394 106.588 159.918C106.599 160.013 106.604 160.11 106.615 160.205C112.862 160.205 119.117 160.167 125.37 160.221C128.969 160.245 129.096 160.345 129.755 163.598C130.236 165.987 130.763 168.405 130.844 170.826C131.065 177.619 130.995 184.417 131.165 191.207C131.228 193.904 130.109 195.747 128.131 197.498C117.966 206.517 108.115 215.895 97.7446 224.655C90.2547 230.967 84.213 238.73 76.5178 244.793C73.4564 247.211 74.3508 250.146 76.507 252.599C77.3905 253.596 78.6091 254.326 79.7574 255.026C82.2973 256.579 84.3238 256.304 86.2125 253.993C93.2944 245.347 101.538 237.822 109.528 230.059C115.197 224.555 121.576 219.916 128.509 216.09C129.477 215.547 130.739 216.301 130.757 217.463C130.844 221.81 130.895 226.16 130.911 230.508C130.928 232.745 131.433 234.793 132.643 236.693C134.135 239.041 137.826 239.332 139.65 237.163C141.465 234.998 142.373 232.507 142.384 229.675C142.4 225.868 142.416 222.064 142.489 218.26C142.516 217.198 142.66 216.112 142.933 215.087C143.016 214.771 143.703 214.417 144.121 214.423C144.611 214.423 145.159 214.704 145.583 215.004C157.494 223.569 169.436 232.096 181.279 240.751C186.34 244.461 191.685 247.638 197.28 250.446C199.885 251.745 201.014 251.397 202.609 248.884C205.089 244.963 205.116 243.785 202.293 240.119C201.158 238.635 199.845 237.19 198.334 236.109C190.377 230.424 182.36 224.815 174.308 219.278C170.052 216.36 165.654 213.658 161.363 210.802C161.13 210.651 161.155 210.01 161.198 209.605C161.214 209.478 161.663 209.313 161.911 209.311C162.722 209.294 163.551 209.267 164.349 209.389C174.265 210.891 184.17 212.445 194.081 213.931C195.416 214.128 196.799 214.163 198.145 214.063C200.209 213.912 201.685 212.772 202.482 210.862C203.133 209.3 202.382 207.103 200.709 205.822C199.866 205.182 198.904 204.582 197.907 204.28C195.827 203.663 193.716 203.018 191.574 202.796C176.745 201.256 162.127 197.9 147.118 198.016C145.726 198.027 144.713 196.887 144.586 195.398C144.565 195.125 144.532 194.86 144.532 194.585C144.443 184.523 144.343 174.463 144.3 164.404C144.284 161.153 145.156 160.378 147.988 160.572C154.754 161.048 161.525 161.561 168.302 161.883C177.526 162.315 186.761 162.615 195.991 162.912C202.509 163.117 209.031 163.25 215.554 163.361C217.18 163.385 218.88 163.49 220.415 163.096C227.929 161.169 235.586 161.512 243.082 162.383C248.802 163.042 253.814 161.445 258.918 159.786C261.947 158.811 263.098 154.293 261.463 151.475" fill="#000000" fill-rule="evenodd" opacity="1" stroke="none"></path>
    </g>
  </symbol>
  <symbol stroke-miterlimit="10" version="1.1" xml:space="preserve" xmlns="http://www.w3.org/2000/svg" xmlnsVectornator="http://vectornator.io" xmlns:xlink="http://www.w3.org/1999/xlink" viewBox="0 0 269.047 256" id="dashboard">
    <defs></defs>
    <g id="图层-1" vectornatorLayerName="图层 1">
      <path d="M20.2308 136.009C21.7766 137.138 23.2638 138.357 24.8486 139.425C25.8067 140.084 26.8551 140.81 27.9523 141.027C31.741 141.758 35.5737 142.278 38.1313 142.685C40.3889 142.685 41.3666 142.785 42.3224 142.67C46.7402 142.153 49.8414 138.184 49.1636 134.047C48.8199 131.96 47.5277 130.546 45.9039 129.446C42.7003 127.276 39.482 125.121 36.154 123.156C30.5781 119.872 25.0217 120.964 19.5969 123.634C18.7948 124.031 18.056 124.863 17.6318 125.674C15.9203 128.978 17.2076 133.808 20.2308 136.009M236.231 94.8228C236.689 89.1811 232.14 86.3212 228.222 88.4375C227.171 89.0007 226.232 89.8248 225.347 90.6513C219.423 96.1979 215.237 103.049 211.155 109.961C210.785 110.585 210.516 111.273 210.265 111.958C209.466 114.179 209.812 116.22 211.141 118.182C213.857 122.193 220.481 123.865 224.077 118.604C228.183 112.594 232.545 106.706 234.885 99.6868C235.568 97.6291 236.048 95.5079 236.231 94.8228M79.5276 86.1822C76.146 82.3008 73.5835 77.9854 71.0187 73.5749C67.5785 67.6576 64.4261 67.7698 59.4646 69.4277C56.6778 70.3542 55.2345 71.9853 54.5079 74.9622C53.3888 79.5823 54.8663 83.5467 56.8802 87.3428C58.2236 89.8613 60.1692 92.1239 62.1343 94.2304C64.9551 97.2756 68.0466 100.05 73.2495 99.9014C73.8542 99.8355 75.0683 99.7575 76.2508 99.5235C77.1992 99.3357 78.1257 99.009 79.0278 98.6604C81.0124 97.89 82.9312 94.7058 82.3168 92.7895C81.5902 90.505 81.027 87.8962 79.5276 86.1822M258.791 194.294C255.967 192.827 252.929 191.966 249.694 192.09C248.002 192.149 246.31 192.298 245.947 192.322C242.665 192.322 240.707 192.149 238.788 192.363C235.899 192.676 232.966 192.978 230.197 193.795C227.3 194.646 225.106 196.659 224.435 199.807C223.699 203.293 225.145 205.97 227.89 208.018C228.661 208.591 229.526 209.108 230.433 209.398C233.442 210.357 236.467 211.032 239.722 210.491C242.819 209.974 245.978 209.667 249.116 209.574C252.632 209.464 255.811 208.316 258.822 206.77C261.38 205.456 262.614 203.086 262.518 200.156C262.433 197.486 261.068 195.492 258.791 194.294M227.069 156.972C227.069 157.206 227.059 157.452 227.073 157.689C227.537 164.277 232.818 169.024 239.727 165.61C241.887 164.535 244.245 163.831 246.325 162.631C249.665 160.7 252.888 158.545 256.087 156.385C257.608 155.361 258.081 153.734 257.991 151.918C257.859 149.302 257.116 146.793 257.013 144.126C256.862 140.413 251.664 137.411 248.195 138.76C240.866 141.595 234.629 146.145 229.1 151.679C227.668 153.115 227.039 154.934 227.069 156.972M116.884 77.6319C120.739 78.5998 124.527 78.1756 128.199 76.5494C130.354 75.5961 131.749 74.0454 132.183 71.7488C132.936 67.7235 133.602 63.6836 134.304 59.6485C134.314 55.4233 133.619 51.398 132.149 47.5117C131.82 46.6584 131.276 45.5661 130.54 45.2272C127.941 44.0033 125.266 42.7014 122.306 44.3739C121.263 44.9615 120.151 45.4613 119.032 45.905C117.038 46.7047 116.045 48.2968 115.516 50.2326C115.199 51.3931 114.887 52.5878 114.86 53.7752C114.804 56.6887 114.195 59.4754 113.58 62.3158C112.781 66.0461 112.166 69.8592 113.073 73.7772C113.607 76.0447 114.963 77.1394 116.884 77.6319M39.2357 184.547C31.7727 183.016 24.3 183.03 16.8053 183.218C10.4029 183.382 5.78514 189.265 6.62141 195.638C7.33089 201.043 10.9027 205.037 16.3201 205.746C20.8647 206.341 25.4849 206.363 29.5175 206.604C33.7159 206.604 37.3535 206.512 40.9887 206.643C43.1147 206.724 44.6897 205.888 46.1721 204.508C48.8052 202.045 49.817 198.851 50.312 195.455C50.4461 194.568 50.2266 193.436 49.7488 192.68C47.2449 188.723 44.324 185.588 39.2357 184.547M183.207 94.1524C179.894 101.708 176.629 109.254 174.021 117.112C171.895 123.544 168.952 129.705 166.424 136.009C165.156 139.164 163.976 142.351 162.822 145.55C161.377 149.538 159.382 152.632 154.84 154.049C151.449 155.114 148.391 157.409 145.361 159.425C141.46 162.017 141.075 166.72 144.361 170.04C145.371 171.072 146.685 171.803 147.716 172.825C148.145 173.254 148.582 174.248 148.372 174.665C147.314 176.826 146.07 178.9 144.81 180.948C144.664 181.187 143.757 181.302 143.562 181.107C139.256 176.826 134.984 172.444 132.802 166.656C132.066 164.708 132.363 162.353 132.098 159.054C131.064 156.606 133.014 154.271 135.194 151.764C146.19 139.118 156.203 125.674 166.848 112.745C171.314 107.32 175.405 101.586 179.692 96.0151C180.426 95.0593 181.281 94.1865 182.098 93.2942C182.259 93.1259 182.515 93.0503 182.725 92.9333C182.9 93.3478 183.329 93.8744 183.207 94.1524M153.906 164.055C153.767 164.069 153.594 163.792 153.429 163.638C153.731 163.44 154.033 163.236 154.387 162.989C154.604 163.226 154.828 163.479 155.05 163.723C154.667 163.84 154.292 164.006 153.906 164.055M137.844 190.742C137.335 191.498 136.501 192.071 135.723 192.59C135.123 192.993 134.399 193.066 134.163 192.112C134.046 191.659 134.082 191.169 134.087 191.227C134.087 190.218 133.931 189.66 134.126 189.279C134.399 188.728 134.938 187.892 135.331 187.912C136.213 187.951 137.203 188.275 137.878 188.819C138.2 189.084 138.156 190.274 137.844 190.742M218.969 50.3228C219.001 46.2512 216.558 44.0521 212.462 44.4787C210.88 44.6445 209.736 45.4857 208.759 46.5852C206.191 49.5036 203.778 52.5586 201.11 55.3867C196.449 60.3385 191.57 65.0952 186.913 70.0518C182.588 74.6598 178.209 79.2483 174.257 84.1562C168.625 91.1584 163.466 98.5141 157.624 105.387C149.927 114.447 142.794 123.992 135.401 133.315C134.499 134.459 133.507 135.527 132.576 136.653C130.411 139.274 128.133 141.812 126.127 144.548C121.672 150.623 117.525 156.933 112.932 162.894C108.514 168.624 105.808 174.946 104.662 182.033C104.123 185.373 103.421 188.692 102.797 192.02C102.458 195.767 104.03 198.7 106.252 201.431C112.013 208.509 119.827 211.344 128.56 212.309C133.383 212.843 137.754 211.422 141.587 208.682C147.816 204.215 152.938 198.795 154.96 191.079C155.828 187.768 157.322 184.788 159.129 181.855C161.794 177.525 164.056 172.934 166.314 168.368C172.589 155.719 176.776 142.234 181.881 129.115C185.845 118.931 189.483 108.622 194.288 98.7823C197.27 92.6798 200.091 86.4797 203.334 80.5137C207.732 72.4241 210.972 63.6738 216.909 56.4376C218.313 54.7236 218.945 52.6122 218.969 50.3228" fill="#000000" fill-rule="evenodd" opacity="1" stroke="none"></path>
    </g>
  </symbol>
  <symbol stroke-miterlimit="10" version="1.1" xml:space="preserve" xmlns="http://www.w3.org/2000/svg" xmlnsVectornator="http://vectornator.io" xmlns:xlink="http://www.w3.org/1999/xlink" viewBox="0 0 269.047 256" id="global">
    <defs></defs>
    <g id="图层-1" vectornatorLayerName="图层 1">
      <path d="M240.04 140.23C236.612 149.134 236.648 158.881 233.376 167.794C231.359 173.29 228.914 178.636 226.545 184.001C225.745 185.819 224.162 186.412 222.398 185.766C220.57 185.091 218.744 184.361 216.996 183.494C213.763 181.897 210.592 180.186 207.389 178.522C206.149 174.982 207.063 171.351 206.988 167.766C206.846 161.055 206.874 154.338 206.857 147.624C206.857 145.949 206.91 144.268 207.052 142.601C207.161 141.356 208.011 140.645 209.212 140.45C215.55 139.43 221.935 138.627 227.916 136.088C230.743 134.884 233.574 133.683 236.425 132.537C238.733 131.606 240.085 132.596 240.171 135.216C240.188 135.776 240.171 136.336 240.171 136.896L240.096 136.896C240.096 138.014 240.417 139.254 240.04 140.23M209.273 207.82C208.075 208.96 206.796 210.064 205.408 210.958C201.336 213.578 198.98 214.314 199.095 213.514C199.393 211.363 199.936 209.256 200.388 207.129C200.502 206.588 200.639 206.048 200.77 205.51C200.803 205.515 200.831 205.524 200.856 205.526C201.428 203.099 201.935 200.654 202.587 198.244C203.072 196.457 204.864 195.459 206.464 196.203C215.168 200.253 217.738 199.763 209.273 207.82M198.183 60.2532C198.038 60.0135 197.857 59.7849 197.776 59.5201C194.596 49.336 189.666 39.9824 184.12 30.927C184.008 30.7515 183.944 30.4337 184.025 30.2776C184.15 30.0463 184.429 29.8986 184.641 29.7174C185.17 29.854 185.747 29.8958 186.215 30.1494C192.099 33.324 198.217 36.1557 203.763 39.8458C208.359 42.9061 212.3 46.953 216.475 50.6292C217.509 51.5406 217.225 53.5167 216.066 54.2692C211.375 57.3239 206.302 59.6149 201.021 61.4321C199.942 61.8 198.844 61.3373 198.183 60.2532M192.899 120.667C192.899 122.626 192.963 124.588 192.871 126.542C192.813 127.802 191.904 128.56 190.733 128.744C187.971 129.17 185.201 129.574 182.419 129.806C172.664 130.631 162.904 131.433 153.143 132.116C150.242 132.32 149.665 131.684 149.264 129.028C149.055 127.646 148.818 126.261 148.718 124.87C147.918 113.429 147.14 101.982 146.379 90.538C146.204 87.9265 146.683 86.5469 150.281 86.6695C151.962 86.728 153.645 86.65 155.326 86.6834C166.039 86.8897 176.497 85.1868 186.829 82.5083C189.214 81.8896 189.677 82.2854 190.14 84.7241C191.341 91.062 191.893 97.4557 192.071 103.911C192.225 109.502 192.735 115.081 193.089 120.667C193.024 120.667 192.963 120.667 192.899 120.667M192.938 158.85C192.762 163.6 192.191 168.335 191.751 173.073C191.556 175.189 190.614 176.161 188.643 176.278C181.374 176.713 174.108 177.106 166.923 177.513C165.435 177.513 164.033 177.482 162.634 177.519C151.075 177.825 154.005 178.968 151.772 167.828C150.903 163.485 151.229 158.889 151.12 154.405C150.917 145.832 149.637 146.094 159.384 145.168C168.545 144.302 177.609 142.381 186.714 140.943C187.821 140.765 188.936 140.645 190.051 140.556C191.659 140.425 192.882 141.35 192.905 142.877C192.974 148.201 193.133 153.533 192.938 158.85M187.13 197.215C185.293 205.412 182.709 213.378 180.128 221.357C178.701 225.772 175.806 227.631 171.488 227.946C168.974 228.124 166.46 228.25 163.949 228.501C161.761 228.724 159.59 229.103 157.408 229.409C155.393 227.166 155.278 224.25 155.136 221.569C154.707 213.185 154.565 204.779 154.412 196.382C154.37 193.846 155.326 193.026 158.054 192.995C162.533 192.937 167.021 192.979 171.499 192.979L171.499 192.647L183.258 192.647C187.896 192.65 188.091 192.906 187.13 197.215M144.935 68.478C144.227 59.8323 143.57 51.1894 142.884 42.5438C142.53 38.0844 142.143 33.625 141.817 29.1628C141.691 27.4905 141.647 25.8043 141.647 24.1265C141.647 22.4486 142.55 21.3449 144.063 21.3198C148.545 21.2502 153.024 21.1833 157.505 21.2808C160.384 21.3449 162.96 22.3037 164.947 24.5808C174.891 35.9689 181.374 49.1604 185.349 63.6562C186.11 66.4155 185.549 67.4746 183.105 67.9763C174.064 69.8381 165.039 71.8197 154.381 71.5382C153.199 71.5382 150.677 71.5995 148.157 71.5215C146.056 71.4546 145.103 70.5516 144.935 68.478M139.927 231.109C137.979 231.232 136.019 231.132 133.851 231.132C129.84 231.656 125.819 230.109 121.747 229.861C116.989 229.574 112.393 228.339 107.669 228.208C105.339 228.141 104.168 226.831 103.324 224.936C100.13 217.759 98.5772 210.103 96.7711 202.525C96.4813 201.315 97.0052 200.273 98.0978 199.774C99.6112 199.085 101.186 198.464 102.791 198.068C105.492 197.407 108.218 196.705 110.972 196.449C120.13 195.607 129.302 194.935 138.469 194.252C139.966 194.138 141.148 195.206 141.184 196.758C141.36 203.442 143.244 209.958 142.909 216.717C142.764 219.716 143.581 222.779 144.113 225.783C144.799 229.615 143.935 230.861 139.927 231.109M92.727 185.08C91.1077 175.152 89.2041 165.264 87.9638 155.291C86.7263 145.397 86.4225 145.626 96.7823 146.219C106.551 146.782 116.356 146.779 126.15 147.002C129.224 147.072 132.307 147.025 135.381 147.128C136.596 147.17 137.38 147.953 137.669 149.157C137.733 149.424 137.772 149.706 137.792 149.985C138.355 157.515 138.91 165.043 139.562 173.915C139.562 173.689 139.584 174.809 139.556 175.93C139.503 178.123 138.848 178.96 136.66 179.252C123.079 181.055 109.617 183.469 96.4339 187.262C94.4021 187.845 93.0364 186.978 92.727 185.08M87.1667 224.108C80.3801 222.051 74.5466 218.241 69.017 213.946C67.7209 212.94 66.7148 211.569 65.5693 210.362C66.5225 208.18 68.6184 208.224 70.4969 207.845C71.046 207.734 71.5923 207.622 72.1413 207.505C75.8482 206.714 79.1816 204.191 83.2536 205.089C84.5162 208.757 85.8818 212.394 87.0106 216.106C87.7297 218.481 88.092 220.97 88.6104 223.375C88.0502 223.668 87.5095 224.214 87.1667 224.108M54.0947 199.397C48.4118 193.545 43.6653 186.964 40.0448 179.695C37.0682 173.709 34.6629 167.418 32.2241 161.175C31.3574 158.951 30.1645 156.621 31.6082 153.987C31.99 153.293 31.2932 151.894 30.8835 150.907C29.9136 148.585 28.743 146.353 27.8038 144.023C26.7251 141.344 27.5362 140.191 30.0948 140.377C34.8747 141.063 39.5599 141.804 44.2645 142.395C53.1276 143.51 62.0046 144.53 70.8732 145.598C73.1642 145.874 74.0087 146.562 74.1926 148.546C75.4496 161.902 77.3923 175.147 80.3912 188.232C81.0322 191.031 80.2714 192.059 77.3198 193.132C71.0181 195.42 64.814 197.965 58.6015 200.484C56.7508 201.234 55.3573 200.691 54.0947 199.397M27.2464 117.693C29.005 108.331 31.3072 99.0192 35.8697 90.6718C39.6044 83.8489 43.682 77.0651 49.3984 71.5382C51.1822 69.813 51.6142 69.6848 53.7853 70.6547C60.4326 73.6174 67.0632 76.6136 73.7411 79.4954C77.5706 81.151 77.6097 81.0618 77.2668 84.8439C76.637 90.9645 76.2774 97.1268 75.3103 103.194C74.0561 110.99 74.1062 118.819 73.8721 126.656C73.8387 127.771 73.8889 128.939 73.5628 129.976C73.3482 130.636 72.5761 131.445 71.9351 131.564C70.5833 131.821 69.1535 131.771 67.7628 131.668C63.0163 131.322 58.281 130.795 53.5345 130.528C45.6804 130.079 38.0214 128.443 30.3679 126.804C27.932 126.28 26.976 125.02 26.976 122.721C26.976 121.043 26.9426 119.329 27.2464 117.693M60.8674 57.5469C61.1879 57.0953 61.4917 56.616 61.8903 56.2285C67.6485 50.6431 72.119 43.9039 77.9999 38.416C82.083 34.6033 86.5368 31.334 91.2833 28.4326C91.6428 28.2124 92.4037 28.2681 92.7465 28.5162C92.9862 28.6918 92.9974 29.4666 92.8496 29.8763C88.7247 41.0889 84.4632 52.2569 82.1164 64.0353C81.9353 64.9411 80.996 65.6964 80.4135 66.513C77.2836 65.7438 74.5633 65.1752 71.9128 64.392C68.7159 63.45 65.5749 62.3268 62.4143 61.2732C60.3295 60.5792 59.7303 59.1272 60.8674 57.5469M103.928 26.8551C105.132 23.5356 107.212 21.8605 110.495 21.2139C112.677 20.7847 114.871 20.3109 116.983 19.6253C119.645 18.7613 122.181 17.8136 125.127 18.4742C126.655 18.8198 128.778 17.6576 129.927 18.3515C131.816 19.4887 130.727 21.9191 130.799 23.8087C130.824 24.6449 130.702 25.4866 130.646 26.3227C130.509 26.3283 130.373 26.3339 130.233 26.3422C130.356 29.1043 130.481 31.8663 130.607 34.6256C130.635 35.1886 130.668 35.746 130.696 36.3034C131.178 46.6353 131.022 56.9978 132.496 67.2767C132.954 70.5014 131.959 71.5076 128.921 71.3431C118.87 70.8052 108.828 70.2199 98.789 69.5398C97.1502 69.4256 95.503 68.8598 93.9729 68.2215C93.4015 67.9818 92.7632 66.9032 92.8357 66.2873C93.0587 64.3558 93.6189 62.4717 94.0091 60.5625C96.3837 49.0489 99.9289 37.8921 103.928 26.8551M134.205 89.4622C134.233 89.7409 134.25 90.0224 134.255 90.3011C134.587 101.221 134.626 112.152 136.078 123.011C136.41 125.502 136.34 128.05 136.373 130.572C136.393 132.144 135.37 133.209 133.857 133.281C132.457 133.354 131.053 133.362 129.656 133.365C125.448 133.373 121.245 133.365 117.036 133.365C117.025 133.524 117.02 133.674 117.014 133.828C108.349 133.357 99.6892 132.913 91.0269 132.395C88.0865 132.222 87.32 131.578 87.2615 129.037C86.9828 117.272 86.6288 105.505 88.5017 93.8101C88.9421 91.0481 88.9978 88.2303 89.3016 85.446C89.4382 84.1862 90.2911 83.4364 91.5341 83.4086C93.2036 83.3723 94.94 83.2636 96.5537 83.626C102.351 84.9331 108.246 84.791 114.113 85.184C119.977 85.577 125.827 86.1176 131.685 86.6305C133.216 86.7615 134.038 87.7621 134.205 89.4622M227.716 65.6797C229.04 69.0382 230.416 72.3743 231.679 75.7551C235.815 86.82 238.636 98.1775 239.218 110.028C239.235 110.307 239.235 110.589 239.285 110.867C240.662 118.571 241.136 117.908 233.638 121.57C232.131 122.306 230.444 122.757 229.07 123.685C223.072 127.763 216.311 127.314 209.594 127.155C207.504 127.105 206.6 126.247 206.709 123.956C207.138 114.677 205.5 105.527 205.054 96.3046C204.803 91.0118 203.933 85.7442 203.34 80.4682C203.089 78.2691 203.877 76.8226 206.018 75.875C210.112 74.0606 214.009 71.7946 218.156 70.1363C221.445 68.8263 223.78 65.5236 227.716 65.6797M258.773 85.6996C257.014 77.2212 254.832 68.7288 250.356 61.1924C244.313 51.0138 236.54 42.2121 227.574 34.489C220.361 28.2737 212.763 22.4737 205.904 15.9045C199.917 10.1658 192.785 7.40094 185.023 6.0464C177.879 4.79777 170.666 3.69407 163.33 4.04803C160.543 4.18181 157.678 4.13722 154.941 3.66619C142.045 1.44486 129.263 3.66619 116.482 4.66399C111.54 5.04861 106.548 6.47282 101.872 8.20642C95.3218 10.634 89.1372 13.959 83.248 17.7913C77.3867 21.6125 71.3024 25.1075 65.5331 29.0597C54.5964 36.5459 44.6129 45.1274 37.8458 56.7302C34.8691 61.8279 31.3852 66.4824 27.8623 71.1619C25.5155 74.2863 23.1493 77.4274 21.1676 80.7803C14.2918 92.4193 8.73428 104.552 8.16292 118.393C8.1239 119.229 8.1239 120.126 7.80896 120.879C5.89141 125.516 6.46277 130.207 7.31842 134.94C7.61665 136.581 7.95109 138.262 7.9288 139.923C7.83681 146.685 8.87084 153.337 10.0609 159.94C11.5549 168.182 13.2187 176.395 17.5917 183.776C19.8716 187.622 21.5913 191.803 23.8656 195.646C26.7029 200.443 29.2503 205.613 32.9906 209.626C45.332 222.876 59.8167 233.406 76.4251 240.731C95.0821 248.961 114.695 253.069 135.1 253.273C144.057 253.362 152.982 253.08 161.898 251.776C175.518 249.791 188.844 246.854 201.586 241.586C214.335 236.324 224.661 227.807 232.719 216.823C240.16 206.672 246.835 195.95 250.801 183.823C251.668 181.17 252.524 178.508 253.399 175.857C259.23 158.212 262.959 140.221 262.435 120.118C262.942 109.407 261.211 97.4863 258.773 85.6996" fill="#000000" fill-rule="evenodd" opacity="1" stroke="none"></path>
    </g>
  </symbol>
  <symbol stroke-miterlimit="10" version="1.1" xml:space="preserve" xmlns="http://www.w3.org/2000/svg" xmlnsVectornator="http://vectornator.io" xmlns:xlink="http://www.w3.org/1999/xlink" viewBox="0 0 269.047 256" id="logo">
    <defs></defs>
    <g id="图层-1" vectornatorLayerName="图层 1">
      <path d="M104.64 76.9973C103.489 77.2404 102.642 77.9162 102.267 79.0269C101.616 80.9516 101.518 82.9522 102.354 84.8079C102.657 85.4837 103.563 86.1349 104.31 86.32C106.922 86.9691 108.813 85.2004 108.909 81.536C108.748 80.9226 108.534 79.6246 108.055 78.4358C107.62 77.3541 105.893 76.7319 104.64 76.9973M148.47 84.9908C150.121 85.2093 151.381 84.4733 152.284 82.9924C153.268 81.3843 153.35 79.667 153.129 77.8983C152.915 76.1475 151.686 75.2688 150.152 74.7402C148.702 74.2451 147.618 75.0011 146.59 75.8732C145.288 76.9839 145.085 78.4827 145.147 80.4074C145.187 80.7219 145.227 81.3843 145.357 82.0289C145.669 83.6191 146.92 84.7856 148.47 84.9908M133.933 109.324C130.157 109.66 126.395 110.153 122.63 110.604C122.193 110.657 121.749 110.782 121.347 110.963C120.257 111.454 119.561 112.252 119.536 113.514C119.512 114.665 120.292 115.709 121.479 115.865C123.466 116.124 125.471 116.267 126.861 116.403C129.269 116.22 131.06 116.128 132.838 115.941C135.12 115.705 137.205 114.917 138.844 113.28C139.27 112.856 139.698 111.969 139.529 111.523C139.246 110.782 138.579 109.879 137.885 109.672C136.643 109.297 135.24 109.208 133.933 109.324M122.487 99.6239C124.207 100.037 126.02 100.059 127.731 100.251C129.365 100.081 131.002 100.173 132.441 99.6841C133.853 99.2024 135.16 98.2456 136.331 97.2799C137.314 96.4658 137.468 94.4942 136.605 93.602C135.889 92.8616 134.847 92.2572 133.853 92.0252C133.074 91.8512 132.135 92.3218 131.281 92.5449C128.141 93.3589 125.11 93.4772 122.369 91.3293C122.028 91.055 121.606 90.832 121.187 90.7182C120.038 90.4105 118.99 90.6446 118.084 91.4498C117.012 92.4066 116.617 93.8608 117.083 95.0763C118.049 97.5921 120 99.0217 122.487 99.6239M115.582 69.7309C117.009 68.3637 116.833 66.43 115.276 65.1141C113.396 63.5283 111.193 63.5328 108.949 63.5194C104.183 63.593 99.6953 64.6747 95.6674 67.3132C94.0325 68.3815 93.524 70.342 94.3715 71.9746C95.0964 73.3641 96.7335 74.2562 98.2969 73.8079C102.804 72.5143 107.339 71.4861 112.054 71.417C113.452 71.3969 114.583 70.6921 115.582 69.7309M156.439 60.8006C154.903 60.6178 153.341 60.6267 151.974 60.562C150.014 60.6534 148.187 60.5018 146.481 60.8787C144.572 61.3069 142.694 62.0608 140.952 62.9618C139.471 63.7291 139.049 66.0843 139.788 67.728C140.399 69.0863 141.951 69.9093 143.653 69.5391C148.488 68.4819 153.286 68.299 158.116 69.626C159.588 70.0275 161.085 69.0038 161.879 67.4827C162.588 66.1244 162.189 64.8955 161.431 63.738C160.258 61.9426 158.496 61.0549 156.439 60.8006M157.325 118.071C153.634 119.639 149.976 121.289 146.287 122.871C141.971 124.717 137.577 126.571 132.845 126.64C125.052 126.758 117.212 127.441 109.504 125.516C107.994 125.141 106.42 124.84 104.874 124.84C103.594 124.844 102.233 125.168 101.063 125.694C100.378 126 99.5927 126.983 99.5927 127.659C99.5927 128.239 100.567 129.171 101.254 129.341C108.851 131.179 116.467 132.97 123.12 132.202C126.399 132.202 128.411 132.151 130.42 132.211C138.771 132.474 146.184 129.631 153.134 125.331C155.424 123.917 157.505 122.213 158.596 119.637C158.739 119.304 158.625 118.716 158.4 118.419C158.208 118.162 157.601 117.953 157.325 118.071M162.722 240.817C162.129 241.424 161.458 241.95 160.904 242.586C160.75 242.755 160.815 243.431 160.924 243.475C161.275 243.6 161.77 243.678 162.073 243.518C163.037 243.005 163.746 242.255 163.657 241.109C163.463 240.4 163.186 240.351 162.722 240.817M142.837 132.773C138.16 133.44 133.699 134.767 129.385 136.71C128.007 137.33 126.352 137.546 124.82 137.568C120.125 137.633 115.426 137.829 110.789 136.627C109.085 136.188 107.223 136.11 105.454 136.237C103.083 136.411 101.038 135.682 99.0865 134.549C97.7304 133.761 96.4681 132.82 95.1566 131.964C90.0403 128.614 86.7617 124.16 85.9476 117.897C84.993 110.588 83.1508 103.4 83.0103 95.9729C82.9545 93.2675 82.7761 90.6625 85.1715 88.5927C86.2665 87.6471 86.2108 85.8628 85.1425 84.9395C83.1575 83.2266 83.1039 81.1702 83.1597 78.8618C83.3091 72.7686 84.7588 66.8984 86.1639 61.0326C87.0985 57.1251 88.4567 53.3179 89.5407 49.4438C92.6386 38.3926 99.6775 30.1292 108.338 23.0858C110.02 21.7231 112.19 20.7462 114.288 20.1507C122.996 17.684 131.531 18.1278 139.732 22.2629C143.523 24.1787 147.217 26.3733 151.176 27.8409C154.039 28.9025 156.239 30.5909 158.364 32.5781C163.282 37.177 168.144 41.8094 171.235 47.9517C171.833 49.1316 172.879 50.0728 173.644 51.1746C175.975 54.5245 177.962 58.0083 177.69 62.3083C179.412 68.4462 179.124 74.7223 178.812 80.9873C178.812 83.6771 178.68 86.3736 178.843 89.0522C179.09 93.2497 177.761 96.9832 175.89 100.612C174.15 103.995 172.277 107.321 170.731 110.789C165.726 122.005 157.035 128.77 145.444 132.133C144.583 132.385 143.717 132.646 142.837 132.773M104.542 147.563C102.619 151.073 100.587 154.517 97.6791 157.329C97.4605 157.541 96.8851 157.438 96.4926 157.394C96.3075 157.372 96.1112 157.157 95.9885 156.988C91.0082 150.145 86.2465 143.162 82.3456 135.63C82.1538 135.256 82.0936 134.794 82.0668 134.366C82.0624 134.219 82.3367 134.018 82.5241 133.911C82.6869 133.81 83.0058 133.697 83.0794 133.77C83.8444 134.52 84.6652 135.242 85.2963 136.101C87.0695 138.505 89.273 140.14 92.1546 141.137C96.1313 142.518 99.9697 144.282 103.848 145.93C104.169 146.068 104.337 146.577 104.553 146.882C104.553 147.132 104.633 147.391 104.542 147.563M133.213 187.137C134.711 184.646 136.761 184.013 139.105 185.324C139.337 185.451 139.498 186.288 139.373 186.381C138.104 187.358 134.553 188.393 133.503 188.183C133.393 187.829 133.081 187.352 133.213 187.137M135.521 167.386C136.03 167.444 136.514 167.718 137.049 167.928C136.734 168.481 136.534 168.824 136.335 169.177C135.86 168.851 135.387 168.528 134.914 168.206C135.117 167.919 135.352 167.37 135.521 167.386M72.4876 82.2898C72.327 83.1128 71.1449 83.6749 70.4491 83.1441C69.7956 82.6467 69.0618 81.9843 68.8477 81.2527C68.5466 80.2246 69.9629 78.7503 71.2431 78.5741C71.5598 78.5295 72.1062 78.8284 72.2489 79.1183C72.5233 79.6759 72.5813 80.3428 72.6705 80.7264C72.5924 81.42 72.5723 81.8638 72.4876 82.2898M188.453 77.5326C188.616 77.4077 189.332 77.6329 189.461 77.8738C190.162 79.1629 189.999 80.4074 188.971 81.4847C188.841 81.6163 188.592 81.6341 188.395 81.7055C188.199 81.6653 187.929 81.6921 187.818 81.5717C186.91 80.5948 187.209 78.505 188.453 77.5326M261.822 128.324C260.283 126.421 258.675 124.51 256.806 122.951C253.717 120.375 250.385 118.095 247.176 115.662C244.856 113.907 242.728 111.837 240.239 110.374C231.541 105.247 222.571 100.672 212.496 98.8322C207.215 97.8664 201.96 96.6732 196.541 96.7C194.292 96.7134 191.997 96.6085 189.988 97.7638C189.323 98.1408 188.527 99.1533 188.592 99.8024C188.975 103.828 188.195 107.811 188.291 111.824C188.337 113.929 188.103 115.533 185.251 116.11C183.46 116.47 181.963 118.292 180.364 119.603C180.317 119.744 180.275 119.889 180.223 120.029C180.163 120.06 180.099 120.085 180.034 120.114C180.021 120.919 180.09 121.749 179.887 122.505C178.223 128.732 176.512 134.946 174.773 141.155C174.115 143.51 173.437 145.867 172.609 148.163C172.098 149.57 171.989 151.673 170.203 151.827C169.159 151.916 167.995 150.58 166.879 149.898C162.655 147.313 157.936 145.946 153.299 144.373C152.266 144.021 151.245 143.597 150.275 143.102C150.054 142.988 150.018 142.422 150 142.065C149.996 141.956 150.335 141.79 150.54 141.721C162.292 137.727 171.911 130.848 179.106 120.665C179.296 120.397 179.686 120.27 180.034 120.114C180.036 120.031 180.032 119.949 180.036 119.871C180.145 119.786 180.255 119.692 180.364 119.603C180.667 118.693 180.922 117.756 181.385 116.938C184.979 110.557 186.865 103.748 186.888 96.4033C186.894 94.6481 186.794 92.614 187.615 91.2245C188.257 90.1361 190.269 89.8819 191.632 89.1749C192.419 88.7667 193.159 88.2403 193.871 87.7006C195.51 86.4494 196.915 84.9261 197.381 82.8987C198.044 80.0372 198.086 77.1021 197.1 74.2785C196.326 72.066 194.837 70.4892 192.562 69.6216C191.698 69.2915 191.333 68.4417 191.953 67.4448C192.428 66.6865 192.943 65.8969 193.159 65.0494C195.006 57.899 196.815 50.7397 198.552 43.5602C198.807 42.5053 198.724 41.3388 198.619 40.237C198.501 38.9814 197.129 37.5361 195.865 37.7614C193.657 38.1539 192.033 37.3399 190.278 36.2425C188.779 35.3013 187.075 34.6523 185.407 34.0167C182.275 32.8257 179.117 31.6927 175.937 30.6355C174.677 30.2117 173.327 29.8348 172.016 29.8303C168.418 29.8214 165.543 28.3695 162.994 25.963C161.696 24.7318 160.316 23.5654 158.866 22.5171C153.783 18.8415 148.82 14.963 143.503 11.6577C135.878 6.92044 126.029 6.7554 117.759 10.4845C113.887 12.2264 109.946 13.8523 105.947 15.2752C96.6688 18.5828 90.3124 25.4433 84.5447 32.9037C83.1485 34.7081 82.2497 36.673 79.7428 37.0209C79.531 37.0521 79.3347 37.2038 79.134 37.3042C75.3647 39.2133 71.9791 41.97 67.5742 42.483C67.1816 42.5321 66.6285 42.8778 66.5014 43.2168C65.3082 46.4485 61.9671 48.7993 62.8481 52.9164C63.4057 55.5215 63.3098 58.2648 63.709 60.9099C64.1796 64.0056 64.8733 67.0656 65.471 70.139C65.6962 71.2876 65.5981 72.3448 64.7394 73.2548C63.9722 74.0711 63.1269 74.8495 62.5292 75.7817C58.5079 82.0623 61.5679 88.1712 66.7802 90.3168C67.8128 90.7405 68.8945 91.0506 69.9517 91.4119C72.6437 92.3174 72.6794 92.3129 72.7307 95.0874C72.7842 97.7794 72.7931 100.471 72.7508 103.163C72.7173 105.521 72.4653 105.965 70.2706 106.362C66.6642 107.006 63.4102 108.431 60.4081 110.439C56.8441 112.825 52.9722 114.56 48.9956 116.073C43.5246 118.156 38.435 120.977 33.4703 124.039C29.846 126.27 26.1258 128.364 22.6353 130.795C20.2712 132.441 17.6885 134.21 16.1808 136.558C14.111 139.776 11.5373 142.578 9.46082 145.758C8.72927 146.88 7.9442 147.984 7.35539 149.182C5.83877 152.244 6.40081 154.724 9.00137 156.975C10.4265 158.208 12.5074 158.368 13.9549 157.229C15.0054 156.401 15.9288 155.411 16.9257 154.51C23.9178 148.194 30.9857 141.973 38.7182 136.567C40.8058 135.111 41.5084 135.378 41.5418 137.682C41.6489 145.078 41.7024 152.471 40.6988 159.838C40.3352 162.486 40.2906 165.218 40.4356 167.89C40.6586 172.038 42.657 173.811 46.8455 174.09C48.8216 174.219 50.791 174.436 52.7648 174.616C53.4495 177.079 51.6742 178.812 50.7062 180.656C48.6253 184.61 46.3638 188.518 43.7409 192.129C41.8162 194.783 39.9293 197.085 41.4035 200.604C41.7091 201.331 41.4771 202.417 41.1894 203.238C40.1256 206.242 41.495 208.439 43.4198 210.478C46.8701 214.144 51.0185 216.718 55.7691 218.353C60.6579 220.044 65.2814 222.294 69.6774 225.013C74.06 227.723 78.4782 230.388 82.7895 233.207C90.125 238.002 98.0404 241.74 105.746 245.857C108.316 247.229 111.112 248.139 114.108 248.123C115.499 248.119 116.802 247.818 117.6 246.547C117.783 246.25 117.835 245.552 117.652 245.4C116.989 244.856 116.24 244.368 115.448 244.033C105.481 239.793 96.1491 234.574 88.4054 226.822C87.007 225.423 85.274 224.313 83.5835 223.249C75.9803 218.485 68.0916 214.24 60.1294 210.108C56.369 208.156 52.9165 205.602 49.3703 203.254C48.5517 202.71 48.4759 201.811 48.9867 200.899C51.5136 196.404 54.0606 191.924 56.5185 187.394C57.9013 184.836 59.1012 182.179 60.4215 179.583C61.6839 177.094 61.9627 174.5 61.6103 171.742C61.2088 168.581 60.339 167.299 57.3927 166.444C56.3356 166.137 55.1981 166.079 54.0963 165.927C50.51 165.434 48.5763 163.092 48.7212 159.655C49.0179 152.715 49.2565 145.776 49.4439 138.835C49.5308 135.695 49.3703 132.552 49.4862 129.419C49.5175 128.629 49.9791 127.57 50.5969 127.139C54.074 124.702 57.6425 122.387 61.2244 120.096C62.7366 119.133 64.4294 120.101 64.4963 121.923C64.6257 125.279 64.3893 128.683 64.8376 131.997C66.0932 141.315 67.8797 150.553 70.197 159.667C71.8475 166.175 73.6251 172.678 76.6918 178.705C77.905 181.082 79.1942 183.542 80.9717 185.487C83.124 187.842 84.8927 190.365 86.3089 193.17C90.6045 201.681 97.0189 208.631 103.293 215.605C105.769 218.358 109.435 220.035 112.538 222.234C113.813 223.144 115.238 223.956 116.238 225.118C118.557 227.823 121.807 228.795 124.851 230.154C126.345 230.825 127.11 230.145 128.014 228.715C129.441 226.46 127.78 224.52 127.739 222.439C127.681 222.432 127.621 222.432 127.561 222.421C127.554 222.341 127.55 222.261 127.545 222.183C126.858 221.875 126.111 221.636 125.576 221.163C125.317 220.936 125.44 220.077 125.641 219.611C125.768 219.312 126.345 219.085 126.729 219.071C126.925 219.067 127.269 219.578 127.327 219.89C127.456 220.644 127.487 221.415 127.545 222.183C127.606 222.209 127.668 222.232 127.728 222.261C127.726 222.321 127.737 222.381 127.739 222.439C129.591 222.689 131.5 222.011 133.306 223.498C135.059 224.939 135.352 224.73 136.931 222.617C137.551 221.79 137.783 221.081 138.53 222.435C138.849 223.019 139.266 223.572 139.736 224.038C140.778 225.071 142.444 224.687 143.057 223.322C143.24 222.919 143.519 222.517 143.573 222.096C144.059 218.326 144.529 214.555 144.951 210.772C145.132 209.153 144.755 207.656 143.619 206.412C143.004 205.743 142.373 204.958 142.877 204.057C144.543 201.059 144.311 198.057 143.16 194.995C143.122 194.895 143.396 194.553 143.561 194.52C143.927 194.451 144.572 194.377 144.652 194.533C145.865 196.922 146.92 199.395 148.196 201.753C149.037 203.303 150.036 204.826 151.229 206.113C152.164 207.119 153.529 207.389 154.945 206.691C156.216 206.068 157.358 205.281 157.427 203.8C157.488 202.493 157.459 201.046 156.959 199.882C155.384 196.177 153.551 192.577 151.856 188.928C150.036 185.007 147.652 181.557 144.237 178.821C142.332 177.297 142.399 177.181 143.387 174.949C145.308 170.624 147.377 166.353 145.169 161.446C144.846 160.735 145.134 159.684 145.303 158.823C145.897 155.882 144.46 154.178 141.989 152.964C140.606 152.28 139.38 150.95 137.689 151.575C135.755 152.289 134.332 151.941 132.858 150.464C132.169 149.775 130.846 149.429 129.809 149.423C127.351 149.414 124.865 149.539 122.438 149.918C120.696 150.192 118.968 150.826 117.348 151.553C115.622 152.333 114.143 154.671 114.614 157.142C115.838 163.579 118.711 169.433 120.87 175.538C121.187 176.434 122.331 177.239 123.279 177.659C124.43 178.165 125.166 178.843 125.36 180.014C125.536 181.078 125.708 182.193 125.558 183.239C125.369 184.555 124.947 185.864 124.461 187.106C122.578 191.899 120.783 196.73 118.662 201.407C117.226 204.579 115.941 207.587 117.772 210.986C117.868 211.165 117.79 211.426 117.812 211.646C117.893 212.398 116.699 213.279 115.945 213.047C113.039 212.153 110.829 210.297 109.065 207.911C105.336 202.872 101.582 197.845 98.007 192.695C95.2079 188.661 92.4245 184.579 90.0492 180.293C85.6822 172.413 82.8943 163.893 80.8602 155.141C80.3116 152.784 80.1331 150.342 79.7808 147.937C82.2007 148.99 82.5687 151.608 83.9269 153.46C87.2345 157.974 90.6313 162.439 92.9018 167.629C93.3233 168.588 94.2846 169.373 95.1343 170.069C96.8294 171.456 99.1333 171.106 100.5 169.364C100.777 169.012 101.129 168.673 101.268 168.267C102.829 163.723 106.09 160.233 108.617 156.288C110.178 153.852 111.541 151.28 112.888 148.716C113.365 147.815 113.976 147.335 114.937 147.317C119.86 147.226 124.809 147.44 129.617 146.015C130.019 145.899 130.512 145.977 130.933 146.07C140.539 148.227 149.974 150.946 159.113 154.637C161.433 155.576 163.505 156.818 165.022 158.902C167.033 161.658 170.053 162.495 173.218 162.914C174.926 163.144 176.298 162.385 177.17 160.913C177.623 160.151 177.911 159.285 178.201 158.44C179.447 154.856 180.649 151.26 181.93 147.687C182.019 147.44 182.427 147.311 182.768 147.157C182.773 147.074 182.775 146.989 182.779 146.909C182.86 146.86 182.915 146.804 182.985 146.753C183.047 145.526 183.105 144.3 183.19 143.075C183.203 142.868 183.359 142.669 183.451 142.468C183.607 142.761 183.899 143.053 183.904 143.349C183.912 144.569 184.142 145.885 182.985 146.753C182.98 146.856 182.973 146.958 182.967 147.061C182.909 147.094 182.837 147.125 182.768 147.157C182.684 148.635 182.753 150.15 182.418 151.575C179.331 164.665 175.357 177.471 169.995 189.825C168.291 193.746 166.355 197.535 163.784 200.95C162.573 202.558 161.016 203.894 159.791 205.489C157.34 208.678 154.862 211.863 152.659 215.222C150.473 218.554 148.812 222.22 146.256 225.336C145.718 225.994 145.453 226.926 145.21 227.772C144.808 229.181 145.941 231.215 147.34 231.516C148.638 231.795 149.383 230.903 150.003 229.926C150.846 228.604 151.664 227.265 152.509 225.945C158.803 216.143 165.059 206.312 171.427 196.558C173.013 194.13 174.739 191.698 176.824 189.72C179.867 186.832 181.678 183.422 183.023 179.528C186.906 168.289 189.876 156.803 191.906 145.114C193.625 135.2 194.999 125.206 194.924 115.082C194.859 106.562 194.067 107.606 202.531 107.974C204.958 108.079 207.371 108.811 209.757 109.397C212.824 110.156 213.391 110.883 213.656 113.989C214.095 119.119 214.579 124.244 214.914 129.379C215.177 133.409 215.282 137.448 215.385 141.48C215.427 143.111 214.566 143.99 212.976 144.065C211.185 144.148 209.387 144.081 207.596 144.155C203.629 144.322 201.989 146.068 201.842 150.009C201.773 151.927 202.29 153.569 203.633 154.898C205.228 156.47 206.825 158.054 208.551 159.479C212.521 162.758 216.576 165.932 220.577 169.177C221.618 170.022 222.604 170.943 223.574 171.873C224.31 172.578 224.288 173.403 223.858 174.3C221.696 178.787 218.614 182.646 215.443 186.419C211.691 190.875 207.654 195.095 203.959 199.601C198.684 206.042 192.7 211.767 186.665 217.461C180.632 223.148 174.668 228.911 168.744 234.71C167.644 235.79 166.797 237.155 165.985 238.477C165.256 239.664 165.581 241 166.636 242.155C167.912 243.549 169.455 244.058 170.825 243.226C172.339 242.302 173.849 241.279 175.091 240.034C182.208 232.881 189.261 225.666 196.989 219.154C198.699 217.713 200.265 216.078 201.742 214.396C206.617 208.834 211.56 203.325 216.212 197.578C220.434 192.365 224.805 187.238 227.83 181.14C229.471 177.835 230.859 174.614 229.333 170.898C230.388 167.381 228.073 165.47 225.762 163.659C222.765 161.313 219.642 159.127 216.627 156.801C215.396 155.85 214.296 154.729 213.194 153.625C213.072 153.504 213.281 152.735 213.442 152.692C216.038 152.043 218.656 151.495 221.255 150.855C222.979 150.429 223.911 149.079 224.168 147.491C224.415 145.972 224.306 144.369 224.181 142.819C223.985 140.365 223.643 137.923 223.365 135.481C222.983 132.151 222.604 128.812 222.223 125.48C221.763 121.486 221.261 117.496 220.876 113.492C220.818 112.87 221.344 112.176 222.185 112.357C230.116 114.034 236.452 118.602 242.481 123.687C243.13 124.231 243.46 125.159 243.935 125.913C244.912 127.458 246.107 128.696 247.876 129.41C249.089 129.903 250.305 130.585 251.275 131.451C253.396 133.338 256.142 133.614 258.624 134.529C259.926 135.008 261.847 133.623 262.257 132.198C262.645 130.848 262.694 129.401 261.822 128.324" fill="#000000" fill-rule="evenodd" opacity="1" stroke="none"></path>
    </g>
  </symbol>
  <symbol stroke-miterlimit="10" version="1.1" xml:space="preserve" xmlns="http://www.w3.org/2000/svg" xmlnsVectornator="http://vectornator.io" xmlns:xlink="http://www.w3.org/1999/xlink" viewBox="0 0 269.047 256" id="money">
    <defs></defs>
    <clipPath id="ArtboardFrame">
      <rect height="256" width="269.047" x="0" y="0"></rect>
    </clipPath>
    <g clip-path="url(#ArtboardFrame)" id="图层-1" vectornatorLayerName="图层 1">
      <path d="M205.722 179.347C205.062 177.903 204.152 176.499 203.077 175.331C201.366 173.465 198.281 173.669 196.505 175.486C194.873 177.156 194.178 179.195 194.417 181.438C194.906 186.014 195.392 190.606 196.25 195.122C196.522 196.573 197.779 197.971 198.887 199.101C200.913 201.173 204.193 200.597 205.942 198.264C207.718 195.891 207.743 193.224 207.666 190.327C207.694 186.66 207.33 182.869 205.722 179.347M153.84 183.345C152.96 183.926 151.529 183.483 151.146 182.416C150.69 181.148 150.209 179.863 149.986 178.543C148.843 171.849 147.746 165.147 146.744 158.431C146.652 157.82 147.225 157.019 147.686 156.474C147.822 156.316 148.699 156.666 149.155 156.93C154.073 159.751 157.571 163.776 159.252 169.245C159.643 170.532 159.801 171.896 160.048 173.128C159.431 177.533 157.468 180.941 153.84 183.345M139.493 187.486C138.339 188.203 137.171 187.842 136.905 186.734C135.947 182.774 134.879 178.829 134.2 174.818C133.247 169.196 132.503 163.531 131.862 157.861C131.542 155.034 132.142 154.239 133.809 154.084C135.754 153.91 136.471 154.863 136.886 157.872C137.256 160.561 137.723 163.238 138.19 165.91C139.216 171.801 140.273 177.685 141.305 183.576C141.397 184.108 141.402 184.656 141.495 185.764C141 186.202 140.327 186.973 139.493 187.486M129.182 141.141C128.511 134.977 127.851 128.807 127.265 122.634C127.088 120.768 128.139 119.848 130.257 119.717C131.781 119.622 133.06 120.464 133.231 121.757C133.367 122.827 133.383 123.91 133.475 124.983C133.921 130.088 134.382 135.197 134.82 140.305C134.939 141.717 133.85 142.898 132.438 142.971C130.963 143.053 129.299 142.184 129.182 141.141M117.312 140.826C108.633 137.852 108.475 135.384 112.288 128.359C113.165 126.746 114.729 125.491 116.049 124.144C116.782 123.4 118.431 124.035 118.629 125.054C118.681 125.32 118.787 125.58 118.814 125.849C119.237 130.178 119.658 134.504 120.166 139.8C120.172 140.264 118.732 141.318 117.312 140.826M148.175 145.176C145.69 144.56 144.49 143.104 144.183 140.682C143.431 134.738 142.635 128.801 141.913 122.854C141.668 120.877 142.766 119.593 144.629 119.774C147.336 120.03 150.035 120.418 152.716 120.88C155.298 121.322 157.579 120.6 159.765 119.383C162.03 118.126 162.182 114.653 159.966 113.203C158.858 112.475 157.579 111.823 156.298 111.584C152.287 110.829 148.229 110.308 144.202 109.653C141.899 109.281 140.216 108.374 139.735 105.68C139.314 103.312 138.347 101.031 137.497 98.7555C137.133 97.7914 135.404 97.5063 134.716 98.3128C133.693 99.5186 132.571 100.776 132.02 102.212C131.564 103.413 131.93 104.909 131.824 106.267C131.67 108.274 130.705 109.289 128.864 109.539C127.186 109.765 125.847 108.602 125.668 106.653C125.491 104.752 125.481 102.834 125.263 100.942C125.087 99.3991 123.533 97.9761 121.975 97.6991C120.712 97.4737 118.591 98.6794 118.203 100.246C117.687 102.335 117.163 104.548 117.35 106.647C117.687 110.427 116.394 113.002 113.008 114.596C112.513 114.832 112.022 115.071 111.558 115.353C103.932 120.027 100.315 127.096 99.9536 135.791C99.8179 139.064 100.964 142.168 103.905 144.359C108.345 147.664 113.016 150.344 118.575 151.224C120.688 151.556 121.885 152.691 122.2 154.969C123.292 162.793 124.164 170.674 125.796 178.389C128.5 191.212 127.479 189.284 115.715 188.901C113.632 188.833 111.568 187.768 109.515 187.098C108.228 186.677 106.993 186.079 105.703 185.648C104.462 185.227 102.984 186.112 102.536 187.513C102.202 188.551 101.947 189.612 101.705 190.495C101.779 193.808 102.523 196.733 105.301 198.512C107.34 199.818 109.564 200.966 111.859 201.724C116.562 203.286 121.475 203.755 126.415 203.411C128.94 203.231 130.619 204.089 131.58 206.428C132.243 208.046 133.41 209.369 135.178 209.312C137.584 209.236 138.032 207.193 138.434 205.263C138.597 204.475 138.836 203.685 139.17 202.954C139.615 201.979 141.592 201.154 142.755 201.697C143.626 202.11 144.702 202.987 144.884 203.826C145.848 208.348 146.453 212.948 147.428 217.464C147.768 219.023 148.805 220.459 150.538 221.016C151.48 221.317 152.841 219.707 153.4 217.578C154.09 214.944 154.839 212.35 154.063 209.534C153.631 207.986 153.677 206.289 153.598 204.657C153.245 197.672 152.574 198.028 158.454 195.068C162.913 192.825 166.582 189.189 168.73 184.781C172.822 176.387 172.743 167.874 167.043 160.012C162.174 153.302 156.67 147.27 148.175 145.176M210.043 229.529C206.52 236.726 200.818 239.037 193.934 237.625C187.88 236.384 181.596 235.069 176.687 230.705C173.216 227.626 169.273 227.58 165.183 229.03C163.396 229.665 161.691 230.561 160.01 231.449C156.873 233.095 153.726 234.733 150.682 236.538C147.312 238.54 143.833 239.623 139.827 239.499C137.163 239.414 134.434 239.995 131.794 240.574C128.498 241.296 125.399 241.185 122.178 240.009C118.097 238.518 113.814 237.568 109.716 236.115C107.443 235.306 105.051 234.301 103.259 232.75C98.7289 228.84 94.2047 224.829 91.4782 219.308C90.878 218.094 90.4734 216.742 88.8168 216.565C86.4325 216.312 84.461 217.1 83.2199 219.145C82.3727 220.53 81.873 222.118 81.1561 223.585C80.6156 224.685 79.5674 225.195 78.4703 224.859C75.3555 223.9 72.2542 222.882 69.2209 221.695C63.9933 219.647 63.8711 218.537 67.3987 214.181C68.4306 212.912 69.3322 211.541 70.2555 210.186C71.3961 208.508 71.4857 206.604 71.2413 204.679C70.9018 201.993 67.6566 200.008 65.0849 200.994C63.5615 201.577 62.1982 202.563 60.6693 203.095C60.2104 203.258 58.8879 202.509 58.877 202.148C58.7629 197.979 59.2083 193.968 63.0265 191.255C64.8025 189.993 66.5541 188.684 68.2432 187.31C69.9731 185.9 71.225 184.176 71.5862 181.867C71.9772 179.396 70.7416 177.683 68.3736 177.066C66.7333 176.637 64.5337 178.283 63.4447 175.795C64.6423 174.361 65.6254 172.648 67.0728 171.543C71.6296 168.08 75.0377 163.303 80.1703 160.474C82.5573 159.157 83.3258 156.449 82.5546 154.065C81.7589 151.599 80.2545 149.679 77.5551 149.201C76.2353 148.965 74.8476 149.158 73.4925 149.106C71.7654 149.041 71.2847 148.259 71.9311 146.437C77.2374 131.533 82.9945 116.844 90.9622 103.087C95.6548 94.9835 101.746 88.0342 107.9 81.1012C109.328 79.4881 110.661 77.2776 112.486 76.6611C114.289 76.0528 116.677 77.0141 118.77 77.4595C127.026 79.2138 135.257 81.0496 143.507 82.8174C145.096 83.1596 146.91 83.92 148.284 83.4638C151.999 82.2309 154.663 84.0911 157.289 85.9513C159.499 87.5236 161.422 89.506 163.448 91.3337C179.799 106.115 193.412 122.987 202.838 143.047C204.462 146.496 206.148 149.921 207.713 153.399C209.174 156.639 210.531 159.977 210.331 163.602C209.912 171.056 212.052 178.196 212.84 185.498C213.565 192.263 214.361 199.022 214.98 204.48C214.646 213.961 213.728 221.985 210.043 229.529M119.441 63.4197C119.411 63.3165 119.81 63.0395 120.049 62.9309C120.277 62.825 120.601 62.7272 120.807 62.8087C122.034 63.3056 123.471 63.6125 124.362 64.4788C124.861 64.9594 124.449 66.3852 124.449 67.3872C124.261 67.4089 124.077 67.428 123.889 67.447C124.142 68.4789 124.245 69.5733 124.679 70.5183C125.28 71.8056 124.297 71.9929 123.656 71.9115C122.613 71.7838 121.586 71.352 120.625 70.8904C120.204 70.6867 119.604 69.9345 119.702 69.7172C120.707 67.542 120.03 65.4999 119.441 63.4197M133.94 72.0228C133.755 72.1097 133.446 72.031 133.239 71.9332C133.125 71.8816 133.103 71.6345 133.038 71.477C133.264 71.4064 133.505 71.2543 133.712 71.2896C134.48 71.4281 134.567 71.7377 133.94 72.0228M96.35 32.6787C95.3289 31.9808 94.4789 31.0276 93.5502 30.1939C94.8808 29.9875 96.2006 29.678 97.5313 29.6101C99.7093 29.4987 101.901 29.5856 104.079 29.5232C110.474 29.3439 113.616 27.0356 115.495 21.1536C115.742 20.3769 115.848 19.5568 116.106 18.7829C117.255 15.3286 117.885 14.742 121.263 14.8045C126.431 14.8968 131.645 14.5682 136.712 16.0428C137.489 16.2655 138.331 16.2546 139.143 16.3524C148.015 17.4006 148.023 17.3924 153.3 23.9833C154.15 25.0397 154.747 26.354 155.738 27.2312C157.177 28.5021 158.888 29.3684 160.974 28.9122C162.837 28.5048 164.711 28.1409 166.593 27.8232C168.146 27.5571 169.648 26.1449 171.255 27.2067C173.566 28.7302 175.467 30.7181 176.2 33.4771C176.366 34.1099 176.04 35.3265 175.562 35.598C172.018 37.6185 168.417 39.5439 164.762 41.3416C161.096 43.1448 157.343 44.7714 153.623 46.466C150.883 47.7152 149.519 49.5971 149.647 52.845C149.766 55.7507 149.088 56.2531 146.288 55.8023C136.004 54.1458 125.622 54.5097 115.275 54.1539C113.293 54.0888 113.138 53.8335 113.765 51.957C113.85 51.699 113.969 51.4519 114.173 50.9549C115.52 48.6494 114.637 46.4551 112.943 44.4537C112.245 43.6282 111.452 42.8379 110.561 42.2323C105.847 39.0197 101.067 35.8968 96.35 32.6787M235.654 179.622C233.666 167.298 229.487 155.808 222.431 145.587C216.995 137.709 212.712 129.173 207.55 121.151C204.139 115.853 200.671 110.612 196.369 106.069C189.795 99.1302 183.03 92.3575 176.04 85.8399C170.864 81.0197 165.362 76.509 158.896 73.3833C156.702 72.327 154.546 71.1864 152.376 70.0866C152.099 67.4062 151.833 64.7313 151.54 62.0592C151.45 61.2472 151.247 60.4461 151.146 59.6341C150.934 57.9504 151.29 57.4507 152.631 57.9205C157.389 59.5771 161.78 58.3605 165.824 55.9951C171.717 52.5463 177.471 48.9182 184.331 47.6038C185.341 47.411 186.542 46.8516 187.131 46.0722C189.447 43.0144 191.555 39.7665 191.288 35.6877C191.202 34.3679 191.028 32.676 190.197 31.8532C186.561 28.2468 185.091 23.5705 183.131 19.087C182.52 17.6885 181.281 16.222 179.948 15.5458C175.079 13.0855 170.093 10.6115 164.488 13.6096C164.252 13.7345 163.967 13.7698 163.717 13.873C162.459 14.4053 161.748 13.8322 161.15 12.7569C160.626 11.8037 159.92 10.9537 159.347 10.0222C157.311 6.74173 154.367 5.33232 150.516 4.98744C145.641 4.55295 140.821 3.55358 135.966 2.87468C132.46 2.38043 128.685 2.6683 125.475 1.44354C119.555-0.815871 113.616 0.262244 107.68 0.224225C104.573 0.20792 102.745 2.12787 102.425 5.37577C102.208 7.54014 102.246 9.73436 102.186 11.9204C102.056 16.5968 102.05 16.4854 97.6807 15.7006C93.9358 15.0271 90.1258 14.7284 86.3429 14.264C86.332 14.3727 86.3212 14.4813 86.3103 14.5926C84.6728 14.5926 83.0298 14.541 81.3923 14.6062C80.0345 14.6605 78.655 14.7393 77.3189 15.0081C72.314 16.0048 68.6723 20.0782 68.3383 25.3139C68.2622 26.5659 68.8026 28.0459 69.5169 29.1104C70.4103 30.4275 71.6975 31.5219 72.9603 32.5375C78.7066 37.1541 84.48 41.7299 90.2806 46.2732C92.2141 47.7831 94.2617 49.1436 96.2495 50.5829C98.3025 52.0683 100.527 52.788 103.131 52.712C104.975 52.6604 106.851 53.1465 108.684 53.5321C109.103 53.619 109.499 54.2436 109.695 54.7079C109.765 54.8763 109.217 55.5552 108.921 55.5742C105.925 55.7779 102.887 56.2667 99.9374 55.949C94.1884 55.3271 89.2921 57.2715 84.3686 59.8242C80.3386 61.9152 77.2727 64.8427 74.921 68.6256C73.4817 70.942 71.9908 73.2367 70.6737 75.621C69.4191 77.8886 67.5643 79.3795 65.2805 80.4385C60.1126 82.8283 55.4037 86.2609 49.5923 87.2141C48.5793 87.3824 47.5936 88.0912 46.7436 88.7402C46.1326 89.2073 45.5813 89.9243 45.3179 90.6466C43.664 95.1437 46.8766 99.285 51.5204 98.4513C53.8993 98.025 56.2456 97.1397 58.4697 96.1485C61.4541 94.8178 64.3327 93.24 67.2058 91.6758C76.0751 86.8556 76.0642 86.8393 81.5335 77.8125C82.0957 76.8811 82.6469 75.9388 83.2308 75.0154C88.1135 67.2759 97.8463 64.7639 106.287 66.5155C106.509 66.5644 106.854 66.8387 106.851 67.007C106.849 67.4959 106.862 68.2019 106.566 68.4273C105.271 69.4104 103.913 70.3255 102.504 71.1321C96.7546 74.4044 91.8285 78.6381 87.2934 83.4475C78.0738 93.2183 70.3506 104.13 62.6735 115.085C62.0624 115.967 61.6904 117.021 61.2396 118.012C57.2802 126.697 53.2584 135.357 49.3967 144.088C47.083 149.315 44.5412 154.521 42.9661 159.99C40.8534 167.331 37.9178 174.364 35.6421 181.626C33.5157 188.404 32.4105 195.383 32.09 202.501C31.9135 206.395 32.7146 210.042 33.79 213.741C35.748 220.448 39.1697 226.23 44.0225 231.197C46.8821 234.127 49.8122 236.989 52.6473 239.941C55.0208 242.415 57.932 243.596 61.2396 244.3C68.2296 245.788 75.1898 246.858 82.2586 244.813C83.0271 244.59 83.8934 244.715 84.7027 244.59C87.5324 244.156 89.9547 244.748 92.3553 246.508C100.535 252.512 110.645 253.063 119.943 255.923C120.443 256.075 121.03 255.958 121.576 255.944C125.942 255.833 130.306 255.695 134.673 255.608C139.637 255.507 144.379 254.413 149.033 252.724C153.427 251.127 157.357 248.705 161.368 246.372C163.687 245.025 166.283 244.15 168.754 243.067C170.604 244.216 172.439 245.394 174.316 246.497C175.725 247.325 177.145 248.17 178.642 248.813C189.388 253.438 200.261 254.223 211.167 249.446C217.264 246.774 223.015 243.178 226.247 237.318C230.437 229.703 234.114 221.738 235.567 212.997C237.416 201.871 237.46 190.78 235.654 179.622" fill="#000000" fill-rule="evenodd" opacity="1" stroke="none"></path>
    </g>
  </symbol>
  <symbol stroke-miterlimit="10" version="1.1" xml:space="preserve" xmlns="http://www.w3.org/2000/svg" xmlnsVectornator="http://vectornator.io" xmlns:xlink="http://www.w3.org/1999/xlink" viewBox="0 0 256 256" id="arrow_left">
    <defs></defs>
    <g id="图层-1" vectornatorLayerName="图层 1">
      <path d="M227.938 151.062C240.676 151.062 251 140.738 251 128C251 115.262 240.676 104.938 227.938 104.938C223.471 104.938 219.32 106.283 215.814 108.497C206.059 114.647 195.396 119.252 183.888 120.005C180.213 120.251 176.885 120.389 174.125 120.389L56.5908 120.389C47.2351 120.389 42.5534 109.066 49.1724 102.439L97.4038 54.1923C102.524 49.0648 112.74 44.2754 116.938 40.0781C118.883 38.1254 120.297 35.0351 120.312 31.9062C120.343 26.2406 116.599 20.375 108.781 20.375C105.829 20.375 102.877 21.5051 100.625 23.7575C96.8426 27.5397 91.6381 38.1946 86.5106 43.3222L7.25243 122.642C5.74569 124.141 5 126.117 5 128.085C5 130.053 5.74569 132.021 7.25243 133.527L38.3023 164.608C77.3394 203.645 80.6757 217.559 83.5124 224.001C86.0416 229.767 90.7694 235.625 101.171 235.625C111.818 235.61 120.374 227.061 120.312 216.406C120.312 207.735 114.285 200.87 108.251 198.717C101.294 196.227 79.6456 184.203 48.8879 153.446C42.4151 146.965 47.435 135.78 56.5908 135.78L174.125 135.78C176.885 135.78 180.206 135.91 183.888 136.156C195.389 136.917 206.051 141.515 215.814 147.672C219.32 149.886 223.471 151.062 227.938 151.062" fill="#000000" fill-rule="nonzero" opacity="1" stroke="none"></path>
    </g>
  </symbol>
  <symbol stroke-miterlimit="10" version="1.1" xml:space="preserve" xmlns="http://www.w3.org/2000/svg" xmlnsVectornator="http://vectornator.io" xmlns:xlink="http://www.w3.org/1999/xlink" viewBox="0 0 256 256" id="menu">
    <defs></defs>
    <clipPath id="ArtboardFrame">
      <rect height="256" width="256" x="0" y="0"></rect>
    </clipPath>
    <g clip-path="url(#ArtboardFrame)" id="图层-1" vectornatorLayerName="图层 1">
      <path d="M185.864 84.72C175.28 79.504 168 68.6 168 56L168 48C168 30.328 182.328 16 200 16L208 16C220.736 16 231.736 23.448 236.888 34.216C247.208 55.808 207.328 95.304 185.864 84.72M256 32C256 14.328 241.672 0 224 0L184 0C166.328 0 152 14.328 152 32L152 72C152 89.68 166.328 104 184 104L224 104C241.672 104 256 89.68 256 72L256 32Z" fill="#000000" fill-rule="nonzero" opacity="1" stroke="none"></path>
      <path d="M33.864 84.72C23.28 79.504 16 68.6 16 56L16 48C16 30.328 30.328 16 48 16L56 16C68.736 16 79.736 23.448 84.888 34.216C95.208 55.808 55.328 95.304 33.864 84.72M104 32C104 14.328 89.672 0 72 0L32 0C14.328 0 0 14.328 0 32L0 72C0 89.68 14.328 104 32 104L72 104C89.672 104 104 89.68 104 72L104 32Z" fill="#000000" fill-rule="nonzero" opacity="1" stroke="none"></path>
      <path d="M33.864 236.72C23.28 231.504 16 220.6 16 208L16 200C16 182.328 30.328 168 48 168L56 168C68.736 168 79.736 175.448 84.888 186.216C95.208 207.808 55.328 247.304 33.864 236.72M104 184C104 166.328 89.672 152 72 152L32 152C14.328 152 0 166.328 0 184L0 224C0 241.68 14.328 256 32 256L72 256C89.672 256 104 241.68 104 224L104 184Z" fill="#000000" fill-rule="nonzero" opacity="1" stroke="none"></path>
      <path d="M185.864 236.72C175.28 231.504 168 220.6 168 208L168 200C168 182.328 182.328 168 200 168L208 168C220.736 168 231.736 175.448 236.888 186.216C247.208 207.808 207.328 247.304 185.864 236.72M256 184C256 166.328 241.672 152 224 152L184 152C166.328 152 152 166.328 152 184L152 224C152 241.68 166.328 256 184 256L224 256C241.672 256 256 241.68 256 224L256 184Z" fill="#000000" fill-rule="nonzero" opacity="1" stroke="none"></path>
    </g>
  </symbol>
</svg>