<?xml version="1.0" standalone="no"?>
<!DOCTYPE svg PUBLIC "-//W3C//DTD SVG 20010904//EN"
 "http://www.w3.org/TR/2001/REC-SVG-20010904/DTD/svg10.dtd">
<svg version="1.0" xmlns="http://www.w3.org/2000/svg"
 width="128.000000pt" height="128.000000pt" viewBox="0 0 128.000000 128.000000"
 preserveAspectRatio="xMidYMid meet">
<metadata>
Created by potrace 1.14, written by Peter Selinger 2001-2017
</metadata>
<g transform="translate(0.000000,128.000000) scale(0.100000,-0.100000)"
fill="#000000" stroke="none">
<path d="M530 1155 c-30 -13 -73 -41 -95 -63 -22 -22 -56 -49 -75 -60 -34 -18
-35 -21 -35 -80 0 -33 -3 -64 -7 -68 -5 -4 -8 -20 -8 -36 0 -21 7 -32 25 -40
17 -8 25 -19 25 -37 0 -23 -12 -31 -100 -74 -110 -52 -159 -90 -183 -139 -15
-30 -15 -34 0 -45 13 -10 25 -4 73 37 32 28 60 50 63 50 4 0 7 -37 9 -82 3
-77 5 -83 26 -86 27 -4 27 -7 -3 -57 -44 -71 -31 -110 45 -144 25 -11 88 -45
140 -76 52 -30 105 -55 118 -55 31 0 20 16 -31 41 -23 12 -56 34 -73 48 -17
15 -65 46 -107 69 -42 24 -77 46 -77 50 0 5 13 33 28 63 16 30 28 60 27 67 -2
6 -3 16 -4 21 0 5 -11 11 -23 13 -21 3 -23 9 -26 85 -3 79 -2 83 23 99 31 20
37 15 42 -34 5 -52 32 -171 45 -196 25 -51 103 -158 129 -179 15 -12 40 -32
56 -44 33 -26 53 -29 53 -8 0 10 11 15 35 15 40 0 49 19 41 85 l-5 39 22 -28
c19 -23 25 -26 34 -15 9 11 5 27 -14 67 -13 28 -28 52 -33 52 -5 0 -6 24 -3
54 6 54 0 66 -37 73 -29 6 -79 5 -90 -2 -15 -9 -6 -57 20 -107 19 -37 19 -38
0 -84 -11 -25 -20 -54 -20 -65 0 -11 -5 -16 -13 -13 -20 7 -115 154 -132 203
-23 67 -17 81 13 29 15 -28 34 -48 44 -48 10 0 28 21 45 50 23 42 33 50 58 51
74 3 105 -3 174 -37 59 -29 76 -33 83 -22 7 9 8 4 4 -15 -15 -64 -49 -136 -96
-201 -27 -38 -50 -77 -50 -88 0 -30 12 -16 93 106 92 137 121 227 129 389 l2
49 34 -6 c19 -3 37 -8 40 -11 3 -3 7 -36 10 -74 l4 -70 -29 -3 c-46 -5 -42
-39 9 -79 24 -18 46 -38 50 -43 14 -20 -25 -69 -162 -206 -113 -113 -114 -115
-85 -116 18 -1 50 24 123 97 167 165 193 223 125 275 -34 26 -35 28 -15 35 13
5 22 18 23 31 2 27 2 20 -6 91 -4 31 -4 57 0 57 15 0 62 -30 83 -53 34 -36 81
-54 93 -36 13 19 -58 81 -141 122 -53 26 -76 32 -131 32 -58 0 -65 2 -61 18 2
9 8 17 13 17 5 0 16 11 25 25 15 23 15 27 1 49 -14 21 -14 29 -1 81 17 62 13
85 -11 85 -9 0 -29 7 -44 15 -16 8 -40 16 -55 19 -14 3 -45 20 -69 40 -76 62
-118 69 -207 31z m170 -62 c39 -21 66 -46 94 -86 35 -50 39 -62 42 -129 3 -65
0 -80 -27 -138 -31 -67 -68 -102 -119 -114 l-25 -6 26 13 c69 32 79 65 12 36
-35 -15 -67 -20 -123 -19 -106 2 -106 2 -93 -11 6 -6 47 -14 90 -18 69 -6 74
-8 42 -15 -52 -11 -128 -1 -158 21 -34 26 -49 92 -46 205 3 117 24 182 75 241
58 66 114 71 210 20z m176 -390 c-10 -26 -18 -8 -9 23 5 21 8 24 11 11 2 -10
1 -25 -2 -34z m-53 -106 c-9 -31 -20 -57 -23 -57 -4 0 -24 7 -44 15 -34 15
-41 35 -12 35 7 0 30 15 52 34 21 19 40 33 41 32 1 -1 -6 -27 -14 -59z m-354
-27 c35 -14 37 -19 18 -45 -13 -17 -16 -15 -45 28 -34 48 -41 68 -18 44 8 -8
28 -20 45 -27z"/>
<path d="M673 935 c-9 -7 -13 -17 -10 -22 8 -12 94 -16 101 -5 16 26 -62 48
-91 27z"/>
<path d="M478 919 c-10 -5 -18 -16 -18 -24 0 -11 10 -13 43 -9 46 7 63 17 53
33 -9 14 -55 14 -78 0z"/>
<path d="M690 855 c0 -26 24 -35 32 -12 7 18 -2 37 -18 37 -8 0 -14 -10 -14
-25z"/>
<path d="M493 854 c-9 -23 11 -38 26 -20 13 16 7 36 -10 36 -5 0 -12 -7 -16
-16z"/>
<path d="M567 804 c-21 -21 19 -48 58 -38 32 8 33 34 1 34 -13 0 -31 2 -38 5
-8 3 -17 2 -21 -1z"/>
<path d="M605 721 c-41 -9 -33 -26 13 -26 25 0 37 4 37 14 0 18 -11 20 -50 12z"/>
</g>
</svg>
